<?xml version="1.0" encoding="UTF-8" standalone="no"?>
<!DOCTYPE svg PUBLIC "-//W3C//DTD SVG 1.1//EN" "http://www.w3.org/Graphics/SVG/1.1/DTD/svg11.dtd">
<svg width="100%" height="100%" viewBox="0 0 1849 2108" version="1.1" xmlns="http://www.w3.org/2000/svg" xmlns:xlink="http://www.w3.org/1999/xlink" xml:space="preserve" xmlns:serif="http://www.serif.com/" style="fill-rule:evenodd;clip-rule:evenodd;stroke-linejoin:round;stroke-miterlimit:2;">
    <g transform="matrix(1,0,0,1,-359,-582.023)">
        <path d="M669.157,2573.44L669.157,1104.44L1811.16,1104.44L1811.16,2573.44C1811.16,2637.74 1555.3,2689.94 1240.16,2689.94C925.014,2689.94 669.157,2637.74 669.157,2573.44Z" style="fill:rgb(235,235,235);"/>
        <g transform="matrix(1.28894,0,0,1,-285.946,105.937)">
            <ellipse cx="1184" cy="998.5" rx="443" ry="116.5" style="fill:white;"/>
        </g>
        <g transform="matrix(1,0,0,1,0,-89)">
            <clipPath id="_clip1">
                <rect x="669.157" y="1500" width="1142" height="929.5"/>
            </clipPath>
            <g clip-path="url(#_clip1)">
                <path d="M669.157,2227.14L359,2227.14L359,1554L669.157,1554C669.157,1592.12 699.086,1638.99 837.983,1660.25C863.309,1664.12 881.491,1639.66 916.037,1641.31C952.238,1643.03 1007,1663.63 1050.03,1668.69C1120.61,1676.99 1181.61,1670.5 1240.16,1670.5C1260.16,1670.5 1288.92,1679.29 1308.39,1678.88C1354.22,1677.91 1409.22,1652.61 1450.81,1649.18C1487.89,1646.12 1516.73,1657.82 1549.04,1654.2C1605.57,1647.87 1666.08,1612.67 1706.41,1601.55C1779.29,1581.45 1811.16,1581.07 1811.16,1554L2208,1554L2208,2227.14L1811.16,2227.14C1811.16,2262.13 1776.75,2269.38 1679.75,2285.77C1655.46,2289.88 1630.05,2313.3 1596.99,2316C1549.68,2319.86 1449.72,2314.87 1391.73,2317.29C1354.71,2318.83 1279.39,2343.64 1240.16,2343.64C1201.26,2343.64 1199.74,2317.64 1163.39,2313.47C1108.74,2307.21 1020.77,2321.31 970.826,2316.02C930.414,2311.73 886.749,2322.8 852.869,2314.61C824.351,2307.72 798.514,2277.98 775.977,2271.99C702.093,2252.35 669.157,2253.78 669.157,2227.14Z" style="fill:rgb(116,205,230);"/>
            </g>
        </g>
        <g transform="matrix(1,0,0,0.519234,0,820.585)">
            <clipPath id="_clip2">
                <rect x="669.157" y="1500" width="1142" height="1064.31"/>
            </clipPath>
            <g clip-path="url(#_clip2)">
                <path d="M669.157,2313L359,2313L359,1500L669.157,1500C669.157,1528.04 754.904,1507.44 781.818,1592.36C787.004,1608.72 858.267,1584.02 910.954,1600.04C934.145,1607.09 985.49,1645.16 1010.72,1655.04C1042.05,1667.31 1129.55,1658.85 1158,1665.1C1201.81,1674.72 1186.49,1695.45 1240.16,1695.46C1285.54,1695.47 1311.69,1732.22 1354.03,1727.38C1381.38,1724.25 1437.18,1631.73 1463.24,1626.15C1510.44,1616.04 1574.77,1635.2 1613.64,1626.15C1664.5,1614.31 1721.82,1529.81 1752.41,1513.46C1804.24,1485.78 1811.16,1524.03 1811.16,1500L2208,1500L2208,2313L1811.16,2313C1811.16,2341.49 1790.94,2338.46 1707.59,2373.45C1693.73,2379.27 1681.42,2426.15 1664.9,2432.95C1625.41,2449.18 1556.54,2448.6 1505.54,2458.43C1443.45,2470.4 1381.94,2463.21 1319.97,2470.58C1293.12,2473.77 1269.42,2496.91 1240.16,2496.91C1198.34,2496.91 1149.1,2538.05 1118.29,2491C1092.71,2451.94 1050.17,2457.14 1044.66,2456.53C1003.55,2452.01 933.766,2469.65 899.326,2463.43C849.548,2454.45 820.393,2401.54 788.434,2387.27C708.935,2351.76 669.157,2345.47 669.157,2313Z" style="fill:rgb(55,127,212);"/>
            </g>
        </g>
        <g transform="matrix(0.105039,0.0113973,1.23471e-18,-0.115121,738.898,1795.07)">
            <path d="M2155,1463C1961,1440 1790,1392 1703,1337C1679,1322 1630,1281 1593,1246C1555,1211 1503,1173 1476,1161C1419,1136 1420,1136 1420,1153C1420,1160 1398,1188 1370,1214C1343,1240 1320,1270 1320,1280C1320,1304 1359,1334 1418,1356C1501,1387 1508,1399 1453,1423C1394,1448 1307,1460 1174,1460C980,1460 869,1430 734,1339C682,1305 640,1286 579,1271C447,1238 326,1174 251,1099C208,1056 208,1004 251,955C298,902 447,806 539,771C583,754 623,740 627,740C632,740 652,706 673,665C717,575 766,519 843,469C899,433 955,412 967,424C970,427 963,441 951,456C921,494 925,501 969,485C1047,458 1200,454 1200,480C1200,485 1181,498 1157,509C1103,535 1069,570 1019,651C990,698 984,716 993,722C1012,732 1211,736 1238,726C1260,719 1261,720 1250,739C1242,754 1254,749 1292,720C1375,657 1540,618 1590,650C1608,661 1607,661 1544,693C1470,730 1426,788 1404,874L1397,902L1458,871C1501,849 1534,822 1567,782C1678,647 1805,581 2074,518C2200,489 2403,486 2444,514C2478,536 2472,542 2390,566C2360,575 2309,596 2277,613C2216,645 2185,685 2160,765C2142,819 2049,910 1970,950C1936,967 1878,987 1842,994L1777,1006L1866,1028C1962,1051 2080,1105 2130,1147C2147,1161 2173,1196 2187,1224C2239,1328 2277,1351 2473,1394C2488,1398 2500,1406 2500,1414C2500,1454 2305,1482 2155,1463Z" style="fill:rgb(255,196,120);fill-rule:nonzero;"/>
        </g>
        <g transform="matrix(-0.111014,-5.02945e-19,-5.02945e-19,-0.115121,1317.16,2186.56)">
            <path d="M2155,1463C1961,1440 1790,1392 1703,1337C1679,1322 1630,1281 1593,1246C1555,1211 1503,1173 1476,1161C1419,1136 1420,1136 1420,1153C1420,1160 1398,1188 1370,1214C1343,1240 1320,1270 1320,1280C1320,1304 1359,1334 1418,1356C1501,1387 1508,1399 1453,1423C1394,1448 1307,1460 1174,1460C980,1460 869,1430 734,1339C682,1305 640,1286 579,1271C447,1238 326,1174 251,1099C208,1056 208,1004 251,955C298,902 447,806 539,771C583,754 623,740 627,740C632,740 652,706 673,665C717,575 766,519 843,469C899,433 955,412 967,424C970,427 963,441 951,456C921,494 925,501 969,485C1047,458 1200,454 1200,480C1200,485 1181,498 1157,509C1103,535 1069,570 1019,651C990,698 984,716 993,722C1012,732 1211,736 1238,726C1260,719 1261,720 1250,739C1242,754 1254,749 1292,720C1375,657 1540,618 1590,650C1608,661 1607,661 1544,693C1470,730 1426,788 1404,874L1397,902L1458,871C1501,849 1534,822 1567,782C1678,647 1805,581 2074,518C2200,489 2403,486 2444,514C2478,536 2472,542 2390,566C2360,575 2309,596 2277,613C2216,645 2185,685 2160,765C2142,819 2049,910 1970,950C1936,967 1878,987 1842,994L1777,1006L1866,1028C1962,1051 2080,1105 2130,1147C2147,1161 2173,1196 2187,1224C2239,1328 2277,1351 2473,1394C2488,1398 2500,1406 2500,1414C2500,1454 2305,1482 2155,1463Z" style="fill:rgb(255,196,120);fill-rule:nonzero;"/>
        </g>
        <g transform="matrix(0.111014,-0.00526027,5.02945e-19,-0.115121,1268.59,1862.76)">
            <path d="M2155,1463C1961,1440 1790,1392 1703,1337C1679,1322 1630,1281 1593,1246C1555,1211 1503,1173 1476,1161C1419,1136 1420,1136 1420,1153C1420,1160 1398,1188 1370,1214C1343,1240 1320,1270 1320,1280C1320,1304 1359,1334 1418,1356C1501,1387 1508,1399 1453,1423C1394,1448 1307,1460 1174,1460C980,1460 869,1430 734,1339C682,1305 640,1286 579,1271C447,1238 326,1174 251,1099C208,1056 208,1004 251,955C298,902 447,806 539,771C583,754 623,740 627,740C632,740 652,706 673,665C717,575 766,519 843,469C899,433 955,412 967,424C970,427 963,441 951,456C921,494 925,501 969,485C1047,458 1200,454 1200,480C1200,485 1181,498 1157,509C1103,535 1069,570 1019,651C990,698 984,716 993,722C1012,732 1211,736 1238,726C1260,719 1261,720 1250,739C1242,754 1254,749 1292,720C1375,657 1540,618 1590,650C1608,661 1607,661 1544,693C1470,730 1426,788 1404,874L1397,902L1458,871C1501,849 1534,822 1567,782C1678,647 1805,581 2074,518C2200,489 2403,486 2444,514C2478,536 2472,542 2390,566C2360,575 2309,596 2277,613C2216,645 2185,685 2160,765C2142,819 2049,910 1970,950C1936,967 1878,987 1842,994L1777,1006L1866,1028C1962,1051 2080,1105 2130,1147C2147,1161 2173,1196 2187,1224C2239,1328 2277,1351 2473,1394C2488,1398 2500,1406 2500,1414C2500,1454 2305,1482 2155,1463Z" style="fill:rgb(255,196,120);fill-rule:nonzero;"/>
        </g>
        <g transform="matrix(-0.0882198,0.0146306,2.49512e-18,-0.115121,1875.42,2149.98)">
            <clipPath id="_clip3">
                <rect x="728.487" y="420.61" width="1771.51" height="1048.48"/>
            </clipPath>
            <g clip-path="url(#_clip3)">
                <path d="M2155,1463C1961,1440 1790,1392 1703,1337C1679,1322 1630,1281 1593,1246C1555,1211 1503,1173 1476,1161C1419,1136 1420,1136 1420,1153C1420,1160 1398,1188 1370,1214C1343,1240 1320,1270 1320,1280C1320,1304 1359,1334 1418,1356C1501,1387 1508,1399 1453,1423C1394,1448 1307,1460 1174,1460C980,1460 869,1430 734,1339C682,1305 640,1286 579,1271C447,1238 326,1174 251,1099C208,1056 208,1004 251,955C298,902 447,806 539,771C583,754 623,740 627,740C632,740 652,706 673,665C717,575 766,519 843,469C899,433 955,412 967,424C970,427 963,441 951,456C921,494 925,501 969,485C1047,458 1200,454 1200,480C1200,485 1181,498 1157,509C1103,535 1069,570 1019,651C990,698 984,716 993,722C1012,732 1211,736 1238,726C1260,719 1261,720 1250,739C1242,754 1254,749 1292,720C1375,657 1540,618 1590,650C1608,661 1607,661 1544,693C1470,730 1426,788 1404,874L1397,902L1458,871C1501,849 1534,822 1567,782C1678,647 1805,581 2074,518C2200,489 2403,486 2444,514C2478,536 2472,542 2390,566C2360,575 2309,596 2277,613C2216,645 2185,685 2160,765C2142,819 2049,910 1970,950C1936,967 1878,987 1842,994L1777,1006L1866,1028C1962,1051 2080,1105 2130,1147C2147,1161 2173,1196 2187,1224C2239,1328 2277,1351 2473,1394C2488,1398 2500,1406 2500,1414C2500,1454 2305,1482 2155,1463Z" style="fill:rgb(255,196,120);fill-rule:nonzero;"/>
            </g>
        </g>
        <g transform="matrix(0.985773,0,0,0.985773,471.647,150.686)">
            <g transform="matrix(350,0,0,350,1000.41,769.658)">
            </g>
            <text x="738.079px" y="769.658px" style="font-family:'SavoyeLetPlain', 'Savoye LET';font-size:350px;fill:rgb(199,139,37);">&amp;</text>
        </g>
        <g transform="matrix(7.19078,0,0,7.19078,-3185.04,-5109.5)">
            <g transform="matrix(61.6073,0,0,61.6073,623.365,832.294)">
            </g>
            <text x="563.652px" y="832.294px" style="font-family:'Baskerville-SemiBold', 'Baskerville', serif;font-weight:600;font-size:61.607px;fill:rgb(199,139,37);">M</text>
        </g>
        <g transform="matrix(8.87891,0,0,8.87891,-3740.71,-6285.42)">
            <g transform="matrix(50,0,0,50,598.052,832.294)">
            </g>
            <text x="563.652px" y="832.294px" style="font-family:'Baskerville-SemiBold', 'Baskerville', serif;font-weight:600;font-size:50px;fill:rgb(199,139,37);">A</text>
        </g>
    </g>
</svg>
